<svg width="25" height="24" viewBox="0 0 25 24" fill="#039be5" xmlns="http://www.w3.org/2000/svg">
<path d="M23.3126 6C22.5426 6.35 21.7126 6.58 20.8526 6.69C21.7326 6.16 22.4126 5.32 22.7326 4.31C21.9026 4.81 20.9826 5.16 20.0126 5.36C19.2226 4.5 18.1126 4 16.8526 4C14.5026 4 12.5826 5.92 12.5826 8.29C12.5826 8.63 12.6226 8.96 12.6926 9.27C9.13258 9.09 5.96258 7.38 3.85258 4.79C3.48258 5.42 3.27258 6.16 3.27258 6.94C3.27258 8.43 4.02258 9.75 5.18258 10.5C4.47258 10.5 3.81258 10.3 3.23258 10V10.03C3.23258 12.11 4.71258 13.85 6.67258 14.24C6.04342 14.4129 5.38262 14.4369 4.74258 14.31C5.01418 15.1625 5.54611 15.9084 6.26359 16.4429C6.98107 16.9775 7.84803 17.2737 8.74258 17.29C7.22625 18.4905 5.34659 19.1394 3.41258 19.13C3.07258 19.13 2.73258 19.11 2.39258 19.07C4.29258 20.29 6.55258 21 8.97258 21C16.8526 21 21.1826 14.46 21.1826 8.79C21.1826 8.6 21.1826 8.42 21.1726 8.23C22.0126 7.63 22.7326 6.87 23.3126 6Z" fill="#039be5"/>
</svg>
